<svg aria-hidden="true" style="position: absolute; width: 0; height: 0; overflow: hidden;" version="1.1" xmlns="http://www.w3.org/2000/svg" xmlns:xlink="http://www.w3.org/1999/xlink">
<defs>
<symbol id="icon-brush" viewBox="0 0 32 32">
<path d="M30.049 0.292c0.233-0.208 0.523-0.311 0.817-0.288s0.569 0.169 0.776 0.411c0.206 0.236 0.332 0.55 0.354 0.885s-0.061 0.668-0.234 0.937c-1.983 3.097-8.39 12.928-13.54 18.895-1.496 1.734-2.992 3.036-4.113 3.898-1.070 0.828-2.459 0.572-3.369-0.481-0.877-1.016-1.117-2.557-0.447-3.769 0.729-1.324 1.869-3.109 3.46-4.829 5.312-5.74 13.645-13.287 16.296-15.659z"></path>
<path d="M12.744 27.115c0 1.296-0.444 2.538-1.234 3.454s-1.862 1.431-2.98 1.431c-2.107 0-4.214 0-7.375-1.221s1.054-2.442 2.107-3.664c1.054-1.221 2.939-4.885 5.268-4.885 1.118 0 2.19 0.515 2.98 1.431s1.234 2.159 1.234 3.454z"></path>
</symbol>
<symbol id="icon-circle" viewBox="0 0 32 32">
<path d="M16 30c-3.713 0-7.274-1.475-9.899-4.1s-4.101-6.186-4.101-9.9c0-3.713 1.475-7.274 4.101-9.899s6.186-4.101 9.899-4.101c3.713 0 7.274 1.475 9.9 4.101s4.1 6.186 4.1 9.899c0 3.713-1.475 7.274-4.1 9.9s-6.186 4.1-9.9 4.1zM16 32c4.243 0 8.313-1.686 11.314-4.686s4.686-7.070 4.686-11.314c0-4.243-1.686-8.313-4.686-11.314s-7.070-4.686-11.314-4.686c-4.243 0-8.313 1.686-11.314 4.686s-4.686 7.070-4.686 11.314c0 4.243 1.686 8.313 4.686 11.314s7.070 4.686 11.314 4.686z"></path>
</symbol>
<symbol id="icon-eraser" viewBox="0 0 32 32">
<path d="M32 10.103c-0.001-0.371-0.072-0.737-0.209-1.079s-0.338-0.652-0.59-0.912l-6.939-7.316c-0.513-0.511-1.195-0.796-1.904-0.796s-1.39 0.285-1.904 0.796l-19.665 20.534c-0.502 0.529-0.784 1.245-0.784 1.991s0.282 1.461 0.784 1.991l4.474 4.698h-4.312c-0.252 0-0.495 0.105-0.673 0.291s-0.279 0.44-0.279 0.704 0.1 0.517 0.279 0.704c0.178 0.187 0.421 0.292 0.673 0.292h23.795c0.252 0 0.495-0.105 0.673-0.292s0.279-0.44 0.279-0.704-0.1-0.517-0.279-0.704c-0.178-0.187-0.421-0.291-0.673-0.291h-10.717l17.133-17.916c0.259-0.257 0.467-0.565 0.611-0.907s0.221-0.71 0.227-1.084zM11.336 30.009h-3.379l-5.816-6.082c-0.075-0.078-0.134-0.17-0.174-0.272s-0.061-0.211-0.061-0.321c0-0.11 0.021-0.219 0.061-0.32s0.099-0.194 0.174-0.272l5.245-5.494 8.081 8.44-4.131 4.32zM29.858 10.64l-13.049 13.646-8.071-8.45 13.040-13.636c0.152-0.153 0.355-0.238 0.566-0.238s0.414 0.085 0.566 0.238l6.948 7.256c0.151 0.159 0.236 0.373 0.238 0.597 0 0.11-0.021 0.218-0.062 0.319s-0.101 0.192-0.176 0.268z"></path>
</symbol>
<symbol id="icon-line" viewBox="0 0 32 32">
<path d="M27.822 2.413l-27.541 22.615c-0.155 0.127-0.143 0.399 0.027 0.606l2.154 2.623c0.169 0.206 0.434 0.271 0.589 0.144l27.541-22.616c0.154-0.127 0.143-0.399-0.027-0.605l-2.154-2.623c-0.169-0.206-0.434-0.271-0.589-0.144z"></path>
</symbol>
<symbol id="icon-rect" viewBox="0 0 32 32">
<path d="M0 4c0-1.061 0.421-2.078 1.172-2.828s1.768-1.172 2.828-1.172h24c1.061 0 2.078 0.421 2.828 1.172s1.172 1.768 1.172 2.828v24c0 1.061-0.421 2.078-1.172 2.828s-1.768 1.172-2.828 1.172h-24c-1.061 0-2.078-0.421-2.828-1.172s-1.172-1.768-1.172-2.828v-24z"></path>
</symbol>
<symbol id="icon-redo" viewBox="0 0 32 32">
<path d="M10 32h6v-4.923h-6c-3.308 0-6-3.313-6-7.385s2.692-7.385 6-7.385h12v7.385l10-9.846-10-9.846v7.385h-12c-5.514 0-10 5.521-10 12.308s4.486 12.308 10 12.308z"></path>
</symbol>
<symbol id="icon-save" viewBox="0 0 32 32">
<path d="M31.252 7.252l-6.504-6.504c-0.3-0.3-0.668-0.52-1.068-0.64v-0.108h-22.4c-0.708 0-1.28 0.572-1.28 1.28v29.44c0 0.708 0.572 1.28 1.28 1.28h29.44c0.708 0 1.28-0.572 1.28-1.28v-21.66c0-0.68-0.268-1.328-0.748-1.808zM10.88 2.88h10.24v4.16h-10.24v-4.16zM29.12 29.12h-26.24v-26.24h5.44v5.44c0 0.708 0.572 1.28 1.28 1.28h12.8c0.708 0 1.28-0.572 1.28-1.28v-4.568l5.44 5.44v19.928zM16 13.2c-3.18 0-5.76 2.58-5.76 5.76s2.58 5.76 5.76 5.76c3.18 0 5.76-2.58 5.76-5.76s-2.58-5.76-5.76-5.76zM16 22.16c-1.768 0-3.2-1.432-3.2-3.2s1.432-3.2 3.2-3.2c1.768 0 3.2 1.432 3.2 3.2s-1.432 3.2-3.2 3.2z"></path>
</symbol>
<symbol id="icon-undo" viewBox="0 0 32 32">
<path d="M10 12.308h12c3.308 0 6 3.313 6 7.385s-2.692 7.385-6 7.385h-6v4.923h6c5.514 0 10-5.521 10-12.308s-4.486-12.308-10-12.308h-12v-7.385l-10 9.846 10 9.846v-7.385z"></path>
</symbol>
</defs>
</svg>
